<svg width="31" height="31" viewBox="0 0 31 31" fill="none" xmlns="http://www.w3.org/2000/svg">
<path d="M12.7217 20.2298C12.7217 21.4544 12.083 23.4583 10.5713 23.4583C9.05957 23.4583 8.4209 21.4544 8.4209 20.2298C8.4209 19.0052 9.05957 17.0013 10.5713 17.0013C12.083 17.0013 12.7217 19.0052 12.7217 20.2298ZM29.9424 17.2708C29.9424 19.1399 29.7549 21.1204 28.917 22.8372C26.6963 27.3255 20.5908 27.22 16.2197 27.22C11.7783 27.22 5.30957 27.3782 3.00098 22.8372C2.14551 21.138 1.81738 19.1399 1.81738 17.2708C1.81738 14.8157 2.63184 12.4954 4.24902 10.6145C3.94434 9.68875 3.79785 8.7161 3.79785 7.75516C3.79785 6.49539 4.08496 5.86258 4.65332 4.72C7.30762 4.72 9.00684 5.24735 11.0283 6.82938C12.7275 6.42508 14.4736 6.24344 16.2256 6.24344C17.8076 6.24344 19.4014 6.41336 20.9365 6.7825C22.9287 5.21805 24.6279 4.72 27.2529 4.72C27.8271 5.86258 28.1084 6.49539 28.1084 7.75516C28.1084 8.7161 27.9561 9.67117 27.6572 10.5794C29.2686 12.4778 29.9424 14.8157 29.9424 17.2708ZM26.1748 20.2298C26.1748 17.6575 24.6104 15.3899 21.8682 15.3899C20.7607 15.3899 19.7002 15.5891 18.5869 15.7415C17.7139 15.8763 16.8408 15.929 15.9443 15.929C15.0537 15.929 14.1807 15.8763 13.3018 15.7415C12.2061 15.5891 11.1338 15.3899 10.0205 15.3899C7.27832 15.3899 5.71387 17.6575 5.71387 20.2298C5.71387 25.3743 10.4248 26.1653 14.5264 26.1653H17.3506C21.4697 26.1653 26.1748 25.3802 26.1748 20.2298ZM21.335 17.0013C19.8232 17.0013 19.1846 19.0052 19.1846 20.2298C19.1846 21.4544 19.8232 23.4583 21.335 23.4583C22.8467 23.4583 23.4854 21.4544 23.4854 20.2298C23.4854 19.0052 22.8467 17.0013 21.335 17.0013Z" fill="white"/>
</svg>
